# xmcd CD database file
#
# Track frame offsets:
#	150
#	14569
#	32918
#	51609
#	76676
#	93537
#	110703
#	131866
#	146956
#	169176
#	185730
#	203674
#	223263
#	244699
#	261732
#	277465
#
# Disc length: 3914 seconds
#
# Revision: 0
# Processed by: cddbd v1.4PL0 Copyright (c) Steve Scherf et al.
# Submitted via: CDex 1.51
#
DISCID=100f4810
DTITLE=Various Artist - robbin cortez mix
DYEAR=2003
DGENRE=Salsa
TTITLE0=01 mama's cd from robbin 
TTITLE1=02 walks on wings
TTITLE2=03 wraps in light
TTITLE3=04 come thou fount
TTITLE4=05 hallelujah
TTITLE5=06 to be loved by you
TTITLE6=07 you are all
TTITLE7=08 he is god
TTITLE8=09 kinda sad song
TTITLE9=10 one thing
TTITLE10=11 tomorrow let me love you more
TTITLE11=12 do ya have a minute
TTITLE12=13 
TTITLE13=14
TTITLE14=15
TTITLE15=16
EXTD=YEAR: 2003
EXTT0=
EXTT1=
EXTT2=
EXTT3=
EXTT4=
EXTT5=
EXTT6=
EXTT7=
EXTT8=
EXTT9=
EXTT10=
EXTT11=
EXTT12=
EXTT13=
EXTT14=
EXTT15=
PLAYORDER=
